HIERARCHY
ROOT simHips
{
  OFFSET -23.398 116.558 -34.978
  CHANNELS 6 Xposition Yposition Zposition Zrotation Xrotation Yrotation
  JOINT simSpine
  {
    OFFSET -0.000355721 27.6045 -0.016921
    CHANNELS 3 Zrotation Xrotation Yrotation
    JOINT simLeftArm
    {
      OFFSET 13.5181 21.3012 0
      CHANNELS 3 Zrotation Xrotation Yrotation
      JOINT simLeftForeArm
      {
        OFFSET 29.578 0 0
        CHANNELS 3 Zrotation Xrotation Yrotation
        JOINT simLeftHand
        {
          OFFSET 29.578 0 0
          CHANNELS 3 Zrotation Xrotation Yrotation
          End Site
          {
            OFFSET 7.32568 1.52588e-05 0.0169305
          }
        }
      }
    }
    JOINT simHead
    {
      OFFSET 0 27.4458 -0.00489235
      CHANNELS 3 Zrotation Xrotation Yrotation
      End Site
      {
        OFFSET 0 0 0
      }
    }
    JOINT simRightArm
    {
      OFFSET -13.5174 21.3012 0
      CHANNELS 3 Zrotation Xrotation Yrotation
      JOINT simRightForeArm
      {
        OFFSET -29.578 0 0
        CHANNELS 3 Zrotation Xrotation Yrotation
        JOINT simRightHand
        {
          OFFSET -29.578 0 0
          CHANNELS 3 Zrotation Xrotation Yrotation
          End Site
          {
            OFFSET -7.32568 1.52588e-05 0.0169305
          }
        }
      }
    }
  }
  JOINT simRightUpLeg
  {
    OFFSET -8.44614 -11.0532 0.835684
    CHANNELS 3 Zrotation Xrotation Yrotation
    JOINT simRightLeg
    {
      OFFSET 0 -42.8199 0
      CHANNELS 3 Zrotation Xrotation Yrotation
      JOINT simRightFoot
      {
        OFFSET 0 -46.1246 0
        CHANNELS 3 Zrotation Xrotation Yrotation
        End Site
        {
          OFFSET 0.50614 -9.67405 14.6709
        }
      }
    }
  }
  JOINT simLeftUpLeg
  {
    OFFSET 8.44614 -11.0532 0.835684
    CHANNELS 3 Zrotation Xrotation Yrotation
    JOINT simLeftLeg
    {
      OFFSET 0 -42.8199 0
      CHANNELS 3 Zrotation Xrotation Yrotation
      JOINT simLeftFoot
      {
        OFFSET 0 -46.1246 0
        CHANNELS 3 Zrotation Xrotation Yrotation
        End Site
        {
          OFFSET -0.50614 -9.67405 14.6709
        }
      }
    }
  }
}
MOTION
Frames:	9
Frame Time:	0.0333333
71.0468 103.655 -125.881 21.0639 -9.92078 52.9164 7.93611 18.5269 -10.6756 -87.7035 16.9158 -20.1605 77.5297 44.0565 -85.2176 -19.3347 2.33323 -5.47155 4.44312 11.6648 -14.252 84.7933 16.777 -9.27388 -54.2494 9.93242 81.2743 -1.19019 4.69397e-05 10.7813 -1.43025 -4.3244 -18.0043 0.0271165 50.0094 0.836424 -8.42896 -48.8401 -15.0788 44.9503 -75.8471 96.8166 179.603 75.8581 173.24 -134.062 42.9229 70.1559 
71.2949 100.961 -127.499 19.8796 -11.4619 52.8997 11.9373 19.7165 -14.0878 -87.7037 16.4118 -20.8719 78.2057 44.4553 -86.0588 -18.5878 2.03242 -4.79419 4.92674 7.45367 -17.3917 84.175 16.5461 -6.94782 -55.0719 10.8269 81.6065 -1.25249 4.68857e-05 11.1221 -0.706675 -9.13137 -17.8451 0.0322748 57.6605 0.772161 -9.99785 -51.2278 -17.2546 34.4242 -75.0817 82.4836 179.539 77.9422 172.666 -139.322 37.1899 76.6248 
71.4238 100.001 -128.954 18.5838 -12.1746 53.3064 15.6949 19.2917 -18.096 -88.6675 15.262 -21.078 77.9408 45.654 -85.6859 -18.6825 1.54938 -3.7095 5.9085 5.64127 -19.5445 84.4054 15.2626 -6.1882 -55.5849 10.076 82.5405 -1.50372 4.67913e-05 11.6948 -0.164773 -10.9547 -18.5096 0.0344048 58.9917 0.672048 -10.1656 -51.9819 -17.2056 24.2926 -73.1076 70.7972 179.42 80.5309 173.262 -144.719 31.7172 86.7217 
71.5302 101.012 -131.344 17.076 -11.7632 51.6337 17.8333 18.3828 -19.6451 -90.3829 13.4061 -20.6733 77.8602 46.7532 -85.5548 -18.9961 1.25615 -3.05172 5.77041 5.00706 -20.7018 84.3122 14.974 -5.82734 -56.5555 9.0905 84.0819 -1.74096 4.67056e-05 12.191 -0.375075 -12.6383 -17.1221 0.012138 56.7764 0.905777 -9.63718 -49.1234 -16.2064 23.0303 -70.9992 71.9572 179.131 82.2425 175.185 -146.269 30.8005 91.3825 
71.5975 103.476 -133.945 15.5316 -9.67454 47.7207 17.9636 17.8226 -19.1965 -90.2873 12.9585 -20.8525 77.0415 46.6912 -84.5182 -19.6504 1.04541 -2.57929 4.33352 4.20178 -20.4402 83.4161 16.8223 -4.94409 -57.9997 9.25401 85.3322 -1.73585 4.67177e-05 12.1221 -2.25599 -14.0249 -15.7259 0.0409459 51.4525 1.43164 -7.64151 -43.9071 -12.1454 25.6178 -69.0982 76.73 -178.798 82.8768 171.823 -151.962 29.173 86.9366 
71.7564 108.742 -139.109 15.24 -5.24237 42.6879 14.8124 17.1675 -17.6087 -89.7738 13.0682 -20.9711 75.8716 46.366 -83.0375 -20.537 0.995145 -2.46662 3.17134 3.75865 -19.4079 82.4316 18.8665 -4.9059 -57.8554 9.04257 85.3057 -1.17476 4.68083e-05 11.5936 -7.1072 -12.8396 -14.6789 -0.0367438 36.0816 2.41575 -3.32563 -31.6116 -5.85346 53.7499 -66.7284 118.082 177.603 65.0171 -176.61 -63.726 42.6413 41.7306 
71.6775 113.505 -144.576 15.638 0.299499 37.3016 10.0295 16.3818 -15.5324 -88.5711 14.018 -21.5178 74.246 45.411 -80.9892 -21.4792 1.14184 -2.7954 2.56287 2.54247 -18.0203 81.7236 19.9678 -5.00553 -56.1441 8.42752 84.0564 0.152116 4.68737e-05 11.1964 -11.6954 -10.8623 -14.0218 0.0247114 16.7675 3.24054 1.45237 -16.0811 1.1121 65.507 -60.5358 151.122 -179.723 47.7797 -172.365 3.26338 8.18599 0.368771 
71.279 115.12 -146.511 15.1989 3.07973 32.715 7.22966 16.9578 -14.033 -86.8739 15.0949 -22.1473 73.3605 44.5059 -79.8869 -21.6189 1.27869 -3.10227 2.58022 0.387098 -16.415 81.673 20.4061 -5.29424 -54.4963 8.21355 82.5726 0.910832 4.69134e-05 10.9487 -12.5186 -13.4672 -15.6729 0.0220734 16.2033 3.39631 2.56827 -14.1052 4.10172 67.2873 -61.6922 152.085 179.927 49.0207 -172.632 0.508574 13.7515 6.15063 
70.7663 115.917 -147.952 14.5679 3.28943 29.2226 5.85266 19.3169 -13.4742 -86.2341 15.4117 -22.3333 73.804 44.1274 -80.4726 -21.3033 1.4861 -3.56736 3.0517 -1.53951 -14.7364 82.2788 20.0045 -5.3306 -53.7896 9.56196 80.9839 0.703983 4.69223e-05 10.8922 -10.7306 -14.4655 -17.9964 0.0124663 22.3861 3.02609 -0.69178 -17.4627 -1.71074 69.0396 -62.3853 150.08 179.933 47.4127 -173.166 -1.2937 15.881 4.81956 
